<?xml version="1.0" standalone="no"?>
<!DOCTYPE svg PUBLIC "-//W3C//DTD SVG 20010904//EN"
 "http://www.w3.org/TR/2001/REC-SVG-20010904/DTD/svg10.dtd">
<svg version="1.0" xmlns="http://www.w3.org/2000/svg"
 width="744.000000pt" height="565.000000pt" viewBox="0 0 744.000000 565.000000"
 preserveAspectRatio="xMidYMid meet">

<g transform="translate(0.000000,565.000000) scale(0.100000,-0.100000)"
fill="#000000" stroke="none">
<path d="M4085 5439 c-38 -5 -129 -18 -202 -30 -128 -20 -248 -22 -285 -5 -17
8 -18 -1 -18 -108 l0 -116 28 -7 c48 -13 163 -5 301 21 157 30 258 41 295 32
l26 -6 0 -125 c0 -123 0 -125 -23 -125 -12 0 -33 -7 -45 -16 -21 -14 -22 -23
-22 -133 0 -130 9 -151 63 -151 l27 0 0 -90 0 -90 -147 0 c-178 0 -209 -8
-258 -61 -154 -171 -151 -614 6 -777 17 -18 42 -38 56 -43 13 -5 96 -9 184 -9
l159 0 0 -74 0 -75 -297 -3 -298 -3 -46 -27 c-245 -144 -364 -676 -253 -1128
47 -191 130 -337 233 -408 l53 -37 302 -5 301 -5 0 -230 0 -230 -362 -3 -362
-2 -41 57 c-81 113 -126 240 -131 365 l-2 58 -259 0 -258 0 0 105 0 105 233 0
c225 0 231 1 205 18 -39 26 -66 64 -95 134 -121 297 -80 850 73 994 l35 34
-225 0 -226 0 0 225 c0 220 0 225 -22 236 -25 14 -121 7 -265 -17 -52 -9 -123
-14 -159 -12 l-64 4 0 -77 c0 -61 3 -78 16 -83 29 -11 110 -6 220 14 60 11
135 20 167 20 l57 0 0 -155 0 -155 -172 0 -171 0 -41 -43 c-47 -49 -85 -140
-113 -267 -28 -129 -25 -450 5 -580 27 -119 84 -236 131 -267 32 -22 44 -23
197 -23 l164 0 0 -105 0 -105 -225 0 -224 0 -443 100 c-244 56 -600 136 -793
180 -192 43 -460 104 -594 135 -134 30 -248 55 -255 55 -6 -1 95 -36 224 -79
1020 -340 1626 -649 1769 -903 18 -31 41 -60 51 -63 30 -10 170 -103 229 -154
65 -55 161 -173 187 -230 20 -43 27 -46 91 -31 237 55 744 69 1103 30 168 -18
424 -49 565 -70 386 -56 664 -85 965 -101 241 -12 338 -7 347 19 72 226 203
408 350 485 l68 36 89 283 c49 156 91 289 94 296 3 9 -57 12 -282 12 l-287 0
3 101 3 102 278 -1 c152 -1 277 2 277 6 0 4 -14 16 -31 26 -41 24 -105 124
-129 202 -77 251 -66 573 26 773 37 80 69 121 119 152 30 19 27 19 -257 19
l-288 0 0 230 c0 216 -1 230 -19 240 -28 15 -79 12 -225 -10 -146 -23 -236
-26 -254 -8 -9 9 -12 -7 -12 -74 0 -69 3 -87 16 -92 29 -11 111 -6 225 14 63
11 138 20 167 20 l52 0 0 -160 0 -160 -212 0 c-192 0 -216 -2 -244 -19 -68
-41 -131 -161 -165 -312 -26 -112 -31 -363 -10 -469 34 -170 96 -297 169 -347
44 -29 104 -35 300 -31 l162 3 0 -102 0 -103 -263 0 -263 0 -45 28 c-166 106
-279 414 -279 764 0 271 59 499 171 658 46 66 87 101 151 130 l43 20 -482 0
-483 0 0 75 0 75 248 0 247 0 -40 23 c-47 27 -96 102 -127 197 -28 89 -36 286
-14 388 23 109 61 186 119 238 l49 44 -241 0 -241 0 0 90 0 90 28 0 c53 0 62
23 62 153 0 108 -1 117 -22 131 -12 9 -33 16 -45 16 l-23 0 0 229 c0 200 -2
230 -16 235 -31 12 -120 14 -189 5z m1125 -3657 c0 -110 -54 -257 -131 -359
l-40 -53 -374 0 -375 0 0 235 0 235 460 0 460 0 0 -58z m-2736 -108 c18 -18
22 -95 6 -125 -12 -22 -78 -27 -98 -7 -7 7 -12 38 -12 70 0 44 4 59 18 67 26
15 69 13 86 -5z m184 4 c16 -16 16 -120 0 -136 -7 -7 -28 -12 -48 -12 -20 0
-41 5 -48 12 -18 18 -15 113 4 132 18 19 75 21 92 4z m188 -13 c19 -30 15
-112 -7 -126 -23 -14 -76 -10 -93 7 -21 20 -21 93 0 122 22 32 78 30 100 -3z
m178 9 c18 -18 22 -95 6 -125 -12 -22 -78 -27 -98 -7 -16 16 -16 120 0 136 17
17 74 15 92 -4z m177 6 c15 -9 19 -22 19 -68 0 -67 -11 -82 -60 -82 -20 0 -41
5 -48 12 -18 18 -15 113 4 132 18 18 56 21 85 6z m2228 -14 c7 -8 11 -37 9
-67 -3 -46 -7 -55 -30 -68 -20 -12 -34 -13 -55 -5 -26 9 -28 14 -31 68 -2 34
2 64 9 72 15 18 83 18 98 0z m179 2 c7 -7 12 -38 12 -70 0 -61 -13 -78 -61
-78 -40 0 -59 28 -59 85 0 60 12 75 60 75 20 0 41 -5 48 -12z m190 -58 c2 -52
0 -67 -14 -77 -48 -35 -104 2 -104 68 0 66 13 81 68 77 l47 -3 3 -65z m181 56
c7 -8 11 -37 9 -67 -3 -46 -7 -55 -30 -68 -20 -12 -34 -13 -55 -5 -26 9 -28
14 -31 68 -2 34 2 64 9 72 15 18 83 18 98 0z m179 2 c19 -19 15 -113 -5 -133
-19 -19 -81 -15 -95 7 -12 20 -9 113 4 126 7 7 28 12 48 12 20 0 41 -5 48 -12z
m-2490 -430 c7 -7 12 -38 12 -70 0 -46 -4 -59 -19 -68 -29 -15 -67 -12 -85 6
-19 19 -22 114 -4 132 16 16 80 16 96 0z m188 -13 c18 -28 15 -95 -6 -120 -19
-23 -76 -19 -94 7 -21 29 -21 102 0 122 25 26 81 20 100 -9z m184 6 c16 -31
12 -102 -7 -123 -18 -20 -54 -23 -84 -8 -15 9 -19 22 -19 68 0 32 5 63 12 70
20 20 86 15 98 -7z m178 7 c7 -7 12 -38 12 -70 0 -46 -4 -59 -19 -68 -29 -15
-67 -12 -85 6 -19 19 -22 114 -4 132 16 16 80 16 96 0z m186 -10 c9 -12 16
-38 16 -58 0 -50 -24 -80 -62 -80 -47 0 -68 25 -68 81 0 57 18 79 65 79 24 0
39 -7 49 -22z m186 3 c16 -30 12 -107 -6 -125 -18 -18 -56 -21 -85 -6 -15 9
-19 22 -19 68 0 32 5 63 12 70 20 20 86 15 98 -7z m178 7 c7 -7 12 -38 12 -70
0 -46 -4 -59 -19 -68 -29 -15 -67 -12 -85 6 -19 19 -22 114 -4 132 16 16 80
16 96 0z m180 0 c16 -16 16 -120 0 -136 -17 -17 -68 -15 -90 5 -23 21 -25 104
-2 127 18 19 75 21 92 4z"/>
<path d="M1720 2719 c-151 -32 -374 -79 -495 -104 -230 -48 -813 -171 -854
-181 -13 -3 -22 -7 -20 -9 4 -3 1798 -365 1812 -365 3 0 -5 11 -18 24 -79 79
-132 338 -123 599 2 81 1 97 -12 96 -8 0 -139 -27 -290 -60z"/>
<path d="M3195 853 c-297 -14 -572 -73 -790 -171 -85 -38 -201 -106 -250 -146
l-30 -25 65 19 c206 62 466 94 770 94 327 0 580 -23 1165 -104 579 -80 689
-89 1090 -86 250 3 354 7 430 20 223 37 406 92 550 163 87 44 219 126 230 142
2 5 -43 -4 -102 -20 -197 -53 -352 -71 -640 -77 -379 -6 -657 16 -1303 107
-535 75 -873 99 -1185 84z"/>
</g>
</svg>
